<svg width="50" height="38" viewBox="0 0 50 38" fill="none" xmlns="http://www.w3.org/2000/svg">
<path d="M42.3368 16.6524C42.1867 16.6047 42.0238 16.6186 41.8839 16.6909C41.7441 16.7633 41.6387 16.8883 41.591 17.0384C41.5433 17.1884 41.5571 17.3513 41.6295 17.4912C41.7019 17.631 41.8269 17.7364 41.9769 17.7841C46.6177 19.2625 48.6875 21.4677 48.6875 24.9376C48.6875 28.0239 45.8719 30.4191 44.1952 31.5734C44.1158 31.6279 44.0508 31.7009 44.0059 31.7862C43.961 31.8714 43.9375 31.9663 43.9375 32.0626V36.6024C42.5116 36.0617 41.2379 35.1837 40.2254 34.0434C40.157 33.9664 40.0699 33.9086 39.9725 33.8755C39.875 33.8424 39.7707 33.8352 39.6696 33.8545C39.3312 33.9199 38.9856 34.0125 38.6353 34.1063C38.0297 34.269 37.4051 34.4376 36.8125 34.4376C33.763 34.4376 31.6279 33.7821 29.4453 32.1778C29.3183 32.0844 29.1595 32.0453 29.0037 32.069C28.848 32.0927 28.708 32.1773 28.6146 32.3043C28.5212 32.4312 28.4821 32.59 28.5058 32.7458C28.5295 32.9016 28.6141 33.0415 28.7411 33.1349C31.1481 34.9043 33.4863 35.6251 36.8125 35.6251C37.5618 35.6251 38.2648 35.4363 38.9441 35.2534C39.1554 35.194 39.3652 35.1394 39.5734 35.0896C41.7929 37.4337 44.3033 37.9669 44.4125 37.9882C44.4988 38.0057 44.5878 38.0038 44.6733 37.9827C44.7587 37.9615 44.8384 37.9217 44.9065 37.8659C44.9747 37.8103 45.0297 37.7402 45.0675 37.6607C45.1053 37.5813 45.1249 37.4944 45.125 37.4064V32.3725C48.1911 30.1864 49.875 27.5549 49.875 24.9376C49.875 20.9227 47.4798 18.29 42.3368 16.6524Z" fill="black"/>
<path d="M39.1875 16.0312C39.1875 6.89225 30.8536 0 19.8039 0C8.69844 0 0 7.04306 0 16.0336C0 21.4237 3.81306 25.2854 7.125 27.6224V35.5027C7.12561 35.6016 7.15083 35.6988 7.19838 35.7855C7.24592 35.8723 7.3143 35.9458 7.39736 35.9995C7.48041 36.0532 7.57552 36.0855 7.67413 36.0933C7.77273 36.101 7.87172 36.0842 7.96219 36.0442C8.13556 35.967 12.1885 34.1252 15.656 30.3335C17.1582 30.6126 18.8575 30.8809 20.3989 30.8809C31.6362 30.8809 39.1875 24.9126 39.1875 16.0312ZM20.3977 29.6934C18.8421 29.6934 17.0739 29.3954 15.5491 29.1044C15.4481 29.0862 15.3441 29.094 15.2468 29.127C15.1496 29.16 15.0624 29.2172 14.9934 29.2932C12.559 32.0387 9.69831 33.7832 8.3125 34.5349V27.3125C8.31246 27.2162 8.28898 27.1213 8.24409 27.036C8.19919 26.9508 8.13423 26.8778 8.05481 26.8232C4.92219 24.6679 1.1875 21.0484 1.1875 16.0336C1.1875 7.70806 9.36462 1.1875 19.8039 1.1875C30.1779 1.1875 38 7.56913 38 16.0312C38 24.2036 30.9261 29.6934 20.3977 29.6934Z" fill="black"/>
<path d="M19.5938 13.6562C18.2839 13.6562 17.2188 14.7214 17.2188 16.0312C17.2188 17.3411 18.2839 18.4062 19.5938 18.4062C20.9036 18.4062 21.9688 17.3411 21.9688 16.0312C21.9688 14.7214 20.9036 13.6562 19.5938 13.6562ZM19.5938 17.2188C19.288 17.2051 18.9993 17.074 18.7878 16.8528C18.5762 16.6316 18.4582 16.3373 18.4582 16.0312C18.4582 15.7252 18.5762 15.4309 18.7878 15.2097C18.9993 14.9885 19.288 14.8574 19.5938 14.8438C19.8995 14.8574 20.1882 14.9885 20.3997 15.2097C20.6113 15.4309 20.7293 15.7252 20.7293 16.0312C20.7293 16.3373 20.6113 16.6316 20.3997 16.8528C20.1882 17.074 19.8995 17.2051 19.5938 17.2188ZM27.9062 13.6562C26.5964 13.6562 25.5312 14.7214 25.5312 16.0312C25.5312 17.3411 26.5964 18.4062 27.9062 18.4062C29.2161 18.4062 30.2812 17.3411 30.2812 16.0312C30.2812 14.7214 29.2161 13.6562 27.9062 13.6562ZM27.9062 17.2188C27.6005 17.2051 27.3118 17.074 27.1003 16.8528C26.8887 16.6316 26.7707 16.3373 26.7707 16.0312C26.7707 15.7252 26.8887 15.4309 27.1003 15.2097C27.3118 14.9885 27.6005 14.8574 27.9062 14.8438C28.212 14.8574 28.5007 14.9885 28.7122 15.2097C28.9238 15.4309 29.0418 15.7252 29.0418 16.0312C29.0418 16.3373 28.9238 16.6316 28.7122 16.8528C28.5007 17.074 28.212 17.2051 27.9062 17.2188ZM11.2812 13.7691C9.97144 13.7691 8.90625 14.8343 8.90625 16.1441C8.90625 17.4539 9.97144 18.5191 11.2812 18.5191C12.5911 18.5191 13.6562 17.4539 13.6562 16.1441C13.6562 14.8343 12.5911 13.7691 11.2812 13.7691ZM11.2812 17.3316C10.9755 17.3179 10.6868 17.1868 10.4753 16.9656C10.2637 16.7444 10.1457 16.4501 10.1457 16.1441C10.1457 15.838 10.2637 15.5437 10.4753 15.3225C10.6868 15.1013 10.9755 14.9702 11.2812 14.9566C11.587 14.9702 11.8757 15.1013 12.0872 15.3225C12.2988 15.5437 12.4168 15.838 12.4168 16.1441C12.4168 16.4501 12.2988 16.7444 12.0872 16.9656C11.8757 17.1868 11.587 17.3179 11.2812 17.3316Z" fill="black"/>
</svg>
